<mxfile host="app.diagrams.net" modified="2021-11-15T10:17:15.129Z" agent="5.0 (X11; Linux x86_64) AppleWebKit/537.36 (KHTML, like Gecko) Chrome/95.0.4638.69 Safari/537.36" etag="N2sFU-3lWa2EoWCryGxY" version="15.7.3" type="github" pages="2">
  <diagram id="hZPbQjz2teNgzwlmYUkK" name="ent_manager_00">
    <mxGraphModel dx="711" dy="381" grid="1" gridSize="10" guides="1" tooltips="1" connect="1" arrows="1" fold="1" page="1" pageScale="1" pageWidth="1920" pageHeight="1200" math="0" shadow="0">
      <root>
        <mxCell id="0" />
        <mxCell id="1" parent="0" />
        <mxCell id="6OKLoz5QRYWBKXCcHKRh-17" value="" style="rounded=0;orthogonalLoop=1;jettySize=auto;html=1;edgeStyle=orthogonalEdgeStyle;elbow=vertical;" parent="1" edge="1">
          <mxGeometry relative="1" as="geometry">
            <mxPoint x="480" y="190" as="sourcePoint" />
            <mxPoint x="540" y="280" as="targetPoint" />
            <Array as="points">
              <mxPoint x="520" y="190" />
              <mxPoint x="520" y="280" />
            </Array>
          </mxGeometry>
        </mxCell>
        <mxCell id="6OKLoz5QRYWBKXCcHKRh-18" value="" style="edgeStyle=orthogonalEdgeStyle;rounded=0;orthogonalLoop=1;jettySize=auto;html=1;" parent="1" edge="1">
          <mxGeometry relative="1" as="geometry">
            <mxPoint x="480" y="190" as="sourcePoint" />
            <mxPoint x="540" y="140" as="targetPoint" />
            <Array as="points">
              <mxPoint x="520" y="190" />
              <mxPoint x="520" y="140" />
            </Array>
          </mxGeometry>
        </mxCell>
        <mxCell id="epeRU77rmkTxnslmgX97-5" value="" style="edgeStyle=orthogonalEdgeStyle;rounded=0;orthogonalLoop=1;jettySize=auto;html=1;" parent="1" edge="1">
          <mxGeometry relative="1" as="geometry">
            <mxPoint x="480" y="190" as="sourcePoint" />
            <mxPoint x="540" y="210" as="targetPoint" />
            <Array as="points">
              <mxPoint x="520" y="190" />
              <mxPoint x="520" y="210" />
            </Array>
          </mxGeometry>
        </mxCell>
        <mxCell id="6OKLoz5QRYWBKXCcHKRh-1" value="系统管理员" style="shape=umlActor;verticalLabelPosition=bottom;verticalAlign=top;html=1;" parent="1" vertex="1">
          <mxGeometry x="440" y="160" width="30" height="60" as="geometry" />
        </mxCell>
        <mxCell id="6OKLoz5QRYWBKXCcHKRh-10" value="" style="ellipse;whiteSpace=wrap;html=1;verticalAlign=top;" parent="1" vertex="1">
          <mxGeometry x="550" y="110" width="180" height="60" as="geometry" />
        </mxCell>
        <mxCell id="6OKLoz5QRYWBKXCcHKRh-11" value="登录系统" style="text;html=1;align=center;verticalAlign=middle;resizable=0;points=[];autosize=1;strokeColor=none;fillColor=none;" parent="1" vertex="1">
          <mxGeometry x="610" y="130" width="60" height="20" as="geometry" />
        </mxCell>
        <mxCell id="6OKLoz5QRYWBKXCcHKRh-12" value="" style="ellipse;whiteSpace=wrap;html=1;verticalAlign=top;" parent="1" vertex="1">
          <mxGeometry x="550" y="250" width="180" height="60" as="geometry" />
        </mxCell>
        <mxCell id="6OKLoz5QRYWBKXCcHKRh-13" value="系统管理" style="text;html=1;align=center;verticalAlign=middle;resizable=0;points=[];autosize=1;strokeColor=none;fillColor=none;" parent="1" vertex="1">
          <mxGeometry x="610" y="280" width="60" height="20" as="geometry" />
        </mxCell>
        <mxCell id="epeRU77rmkTxnslmgX97-1" value="" style="ellipse;whiteSpace=wrap;html=1;verticalAlign=top;" parent="1" vertex="1">
          <mxGeometry x="550" y="180" width="180" height="60" as="geometry" />
        </mxCell>
        <mxCell id="epeRU77rmkTxnslmgX97-2" value="修改密码" style="text;html=1;align=center;verticalAlign=middle;resizable=0;points=[];autosize=1;strokeColor=none;fillColor=none;" parent="1" vertex="1">
          <mxGeometry x="610" y="200" width="60" height="20" as="geometry" />
        </mxCell>
      </root>
    </mxGraphModel>
  </diagram>
  <diagram id="LtYkvaE_vi5jjCfZ22qR" name="ent_manager_10">
    <mxGraphModel dx="711" dy="381" grid="1" gridSize="10" guides="1" tooltips="1" connect="1" arrows="1" fold="1" page="1" pageScale="1" pageWidth="1920" pageHeight="1200" math="0" shadow="0">
      <root>
        <mxCell id="qFUhUoFra0QCx2b-uVbG-0" />
        <mxCell id="qFUhUoFra0QCx2b-uVbG-1" parent="qFUhUoFra0QCx2b-uVbG-0" />
        <mxCell id="j0zdqZ4gvTMgkpvPAREg-2" value="" style="edgeStyle=orthogonalEdgeStyle;rounded=0;orthogonalLoop=1;jettySize=auto;html=1;" parent="qFUhUoFra0QCx2b-uVbG-1" source="j0zdqZ4gvTMgkpvPAREg-3" edge="1">
          <mxGeometry relative="1" as="geometry">
            <mxPoint x="540" y="190" as="targetPoint" />
          </mxGeometry>
        </mxCell>
        <mxCell id="j0zdqZ4gvTMgkpvPAREg-3" value="系统管理员" style="shape=umlActor;verticalLabelPosition=bottom;verticalAlign=top;html=1;" parent="qFUhUoFra0QCx2b-uVbG-1" vertex="1">
          <mxGeometry x="440" y="160" width="30" height="60" as="geometry" />
        </mxCell>
        <mxCell id="j0zdqZ4gvTMgkpvPAREg-6" value="" style="rounded=0;orthogonalLoop=1;jettySize=auto;html=1;entryX=0.519;entryY=1.042;entryDx=0;entryDy=0;entryPerimeter=0;" parent="qFUhUoFra0QCx2b-uVbG-1" source="j0zdqZ4gvTMgkpvPAREg-8" target="j0zdqZ4gvTMgkpvPAREg-12" edge="1">
          <mxGeometry relative="1" as="geometry" />
        </mxCell>
        <mxCell id="j0zdqZ4gvTMgkpvPAREg-7" value="" style="rounded=0;orthogonalLoop=1;jettySize=auto;html=1;entryX=0.5;entryY=1;entryDx=0;entryDy=0;" parent="qFUhUoFra0QCx2b-uVbG-1" source="j0zdqZ4gvTMgkpvPAREg-8" target="j0zdqZ4gvTMgkpvPAREg-14" edge="1">
          <mxGeometry relative="1" as="geometry">
            <mxPoint x="800" y="110" as="targetPoint" />
          </mxGeometry>
        </mxCell>
        <mxCell id="kScn1_yhGbefPO-GcbY0-1" value="" style="rounded=0;orthogonalLoop=1;jettySize=auto;html=1;" parent="qFUhUoFra0QCx2b-uVbG-1" source="j0zdqZ4gvTMgkpvPAREg-8" target="kScn1_yhGbefPO-GcbY0-0" edge="1">
          <mxGeometry relative="1" as="geometry" />
        </mxCell>
        <mxCell id="kScn1_yhGbefPO-GcbY0-4" value="" style="edgeStyle=none;rounded=0;orthogonalLoop=1;jettySize=auto;html=1;" parent="qFUhUoFra0QCx2b-uVbG-1" source="j0zdqZ4gvTMgkpvPAREg-8" target="kScn1_yhGbefPO-GcbY0-3" edge="1">
          <mxGeometry relative="1" as="geometry" />
        </mxCell>
        <mxCell id="kScn1_yhGbefPO-GcbY0-7" value="" style="edgeStyle=none;rounded=0;orthogonalLoop=1;jettySize=auto;html=1;" parent="qFUhUoFra0QCx2b-uVbG-1" source="j0zdqZ4gvTMgkpvPAREg-8" target="kScn1_yhGbefPO-GcbY0-6" edge="1">
          <mxGeometry relative="1" as="geometry" />
        </mxCell>
        <mxCell id="kScn1_yhGbefPO-GcbY0-10" value="" style="edgeStyle=none;rounded=0;orthogonalLoop=1;jettySize=auto;html=1;" parent="qFUhUoFra0QCx2b-uVbG-1" source="j0zdqZ4gvTMgkpvPAREg-8" target="kScn1_yhGbefPO-GcbY0-9" edge="1">
          <mxGeometry relative="1" as="geometry" />
        </mxCell>
        <mxCell id="j0zdqZ4gvTMgkpvPAREg-8" value="" style="ellipse;whiteSpace=wrap;html=1;verticalAlign=top;" parent="qFUhUoFra0QCx2b-uVbG-1" vertex="1">
          <mxGeometry x="550" y="160" width="180" height="60" as="geometry" />
        </mxCell>
        <mxCell id="j0zdqZ4gvTMgkpvPAREg-9" value="系统管理" style="text;html=1;align=center;verticalAlign=middle;resizable=0;points=[];autosize=1;strokeColor=none;fillColor=none;" parent="qFUhUoFra0QCx2b-uVbG-1" vertex="1">
          <mxGeometry x="610" y="180" width="60" height="20" as="geometry" />
        </mxCell>
        <mxCell id="j0zdqZ4gvTMgkpvPAREg-12" value="" style="ellipse;whiteSpace=wrap;html=1;verticalAlign=top;" parent="qFUhUoFra0QCx2b-uVbG-1" vertex="1">
          <mxGeometry x="440" y="20" width="180" height="60" as="geometry" />
        </mxCell>
        <mxCell id="j0zdqZ4gvTMgkpvPAREg-13" value="系统设置" style="text;html=1;align=center;verticalAlign=middle;resizable=0;points=[];autosize=1;strokeColor=none;fillColor=none;" parent="qFUhUoFra0QCx2b-uVbG-1" vertex="1">
          <mxGeometry x="500" y="40" width="60" height="20" as="geometry" />
        </mxCell>
        <mxCell id="j0zdqZ4gvTMgkpvPAREg-14" value="" style="ellipse;whiteSpace=wrap;html=1;verticalAlign=top;" parent="qFUhUoFra0QCx2b-uVbG-1" vertex="1">
          <mxGeometry x="660" y="20" width="180" height="60" as="geometry" />
        </mxCell>
        <mxCell id="j0zdqZ4gvTMgkpvPAREg-15" value="部门管理" style="text;html=1;align=center;verticalAlign=middle;resizable=0;points=[];autosize=1;strokeColor=none;fillColor=none;" parent="qFUhUoFra0QCx2b-uVbG-1" vertex="1">
          <mxGeometry x="720" y="40" width="60" height="20" as="geometry" />
        </mxCell>
        <mxCell id="kScn1_yhGbefPO-GcbY0-0" value="" style="ellipse;whiteSpace=wrap;html=1;verticalAlign=top;" parent="qFUhUoFra0QCx2b-uVbG-1" vertex="1">
          <mxGeometry x="440" y="280" width="180" height="60" as="geometry" />
        </mxCell>
        <mxCell id="kScn1_yhGbefPO-GcbY0-2" value="角色管理" style="text;html=1;align=center;verticalAlign=middle;resizable=0;points=[];autosize=1;strokeColor=none;fillColor=none;" parent="qFUhUoFra0QCx2b-uVbG-1" vertex="1">
          <mxGeometry x="500" y="300" width="60" height="20" as="geometry" />
        </mxCell>
        <mxCell id="kScn1_yhGbefPO-GcbY0-3" value="" style="ellipse;whiteSpace=wrap;html=1;verticalAlign=top;" parent="qFUhUoFra0QCx2b-uVbG-1" vertex="1">
          <mxGeometry x="660" y="280" width="180" height="60" as="geometry" />
        </mxCell>
        <mxCell id="kScn1_yhGbefPO-GcbY0-5" value="资源管理" style="text;html=1;align=center;verticalAlign=middle;resizable=0;points=[];autosize=1;strokeColor=none;fillColor=none;" parent="qFUhUoFra0QCx2b-uVbG-1" vertex="1">
          <mxGeometry x="720" y="300" width="60" height="20" as="geometry" />
        </mxCell>
        <mxCell id="kScn1_yhGbefPO-GcbY0-6" value="" style="ellipse;whiteSpace=wrap;html=1;verticalAlign=top;" parent="qFUhUoFra0QCx2b-uVbG-1" vertex="1">
          <mxGeometry x="800" y="80" width="180" height="60" as="geometry" />
        </mxCell>
        <mxCell id="kScn1_yhGbefPO-GcbY0-8" value="员工管理" style="text;html=1;align=center;verticalAlign=middle;resizable=0;points=[];autosize=1;strokeColor=none;fillColor=none;" parent="qFUhUoFra0QCx2b-uVbG-1" vertex="1">
          <mxGeometry x="860" y="100" width="60" height="20" as="geometry" />
        </mxCell>
        <mxCell id="kScn1_yhGbefPO-GcbY0-9" value="" style="ellipse;whiteSpace=wrap;html=1;verticalAlign=top;" parent="qFUhUoFra0QCx2b-uVbG-1" vertex="1">
          <mxGeometry x="800" y="220" width="180" height="60" as="geometry" />
        </mxCell>
        <mxCell id="kScn1_yhGbefPO-GcbY0-11" value="职位管理" style="text;html=1;align=center;verticalAlign=middle;resizable=0;points=[];autosize=1;strokeColor=none;fillColor=none;" parent="qFUhUoFra0QCx2b-uVbG-1" vertex="1">
          <mxGeometry x="860" y="240" width="60" height="20" as="geometry" />
        </mxCell>
      </root>
    </mxGraphModel>
  </diagram>
</mxfile>
